# xmcd CD database file
#
# Track frame offsets:
#	150
#	5087
#	31487
#	55862
#	79262
#	103187
#	124562
#	146162
#	166337
#	188525
#	214850
#	244475
#	276875
#	301325
#
# Disc length: 4342 seconds
#
# Revision: 2
# Processed by: cddbd v1.5.2PL0 Copyright (c) Steve Scherf et al.
# Submitted via: CDex 1.70beta3
#
DISCID=c810f40e
DTITLE=Mr.Children - HOME
DYEAR=2007
DGENRE=Pop
TTITLE0=叫び 祈り
TTITLE1=Wake me up！
TTITLE2=彩り
TTITLE3=箒星
TTITLE4=Another Story
TTITLE5=PIANO MAN
TTITLE6=もっと
TTITLE7=やわらかい風
TTITLE8=フェイク
TTITLE9=ポケット カスタネット
TTITLE10=SUNRISE
TTITLE11=しるし
TTITLE12=通り雨
TTITLE13=あんまり覚えてないや
EXTD=YEAR: 2007
EXTT0=
EXTT1=
EXTT2=
EXTT3=
EXTT4=
EXTT5=
EXTT6=
EXTT7=
EXTT8=
EXTT9=
EXTT10=
EXTT11=
EXTT12=
EXTT13=
PLAYORDER=
